<?xml version="1.0" encoding="UTF-8"?>
<svg width="700pt" height="700pt" version="1.1" viewBox="0 0 700 700" xmlns="http://www.w3.org/2000/svg" xmlns:xlink="http://www.w3.org/1999/xlink">
 <defs>
  <symbol id="u" overflow="visible">
   <path d="m4.75-0.28125c-0.24219 0.125-0.49609 0.21875-0.76562 0.28125-0.26172 0.0625-0.53906 0.09375-0.82812 0.09375-0.86719 0-1.5469-0.23828-2.0469-0.71875-0.5-0.47656-0.75-1.1289-0.75-1.9531 0-0.83203 0.25-1.4883 0.75-1.9688 0.5-0.47656 1.1797-0.71875 2.0469-0.71875 0.28906 0 0.56641 0.03125 0.82812 0.09375 0.26953 0.0625 0.52344 0.16406 0.76562 0.29688v1.0625c-0.25-0.16406-0.49609-0.28516-0.73438-0.35938-0.24219-0.082031-0.49219-0.125-0.75-0.125-0.48047 0-0.85547 0.15234-1.125 0.45312-0.27344 0.30469-0.40625 0.72656-0.40625 1.2656 0 0.53125 0.13281 0.95312 0.40625 1.2656 0.26953 0.30469 0.64453 0.45312 1.125 0.45312 0.25781 0 0.50781-0.035156 0.75-0.10938 0.23828-0.082031 0.48438-0.21094 0.73438-0.39062z"/>
  </symbol>
  <symbol id="e" overflow="visible">
   <path d="m3.4844-2.8281c-0.11719-0.050781-0.22656-0.085937-0.32812-0.10938-0.10547-0.019531-0.21484-0.03125-0.32812-0.03125-0.3125 0-0.55859 0.10547-0.73438 0.3125-0.17969 0.19922-0.26562 0.49219-0.26562 0.875v1.7812h-1.2344v-3.875h1.2344v0.64062c0.16406-0.25781 0.34766-0.44531 0.54688-0.5625 0.20703-0.11328 0.45703-0.17188 0.75-0.17188h0.125c0.050781 0 0.125 0.011719 0.21875 0.03125z"/>
  </symbol>
  <symbol id="a" overflow="visible">
   <path d="m4.4688-1.9531v0.35938h-2.9062c0.03125 0.29297 0.13281 0.51172 0.3125 0.65625 0.1875 0.14844 0.44141 0.21875 0.76562 0.21875 0.25781 0 0.52344-0.035156 0.79688-0.10938 0.28125-0.082031 0.5625-0.20312 0.84375-0.35938v0.95312c-0.29297 0.11719-0.58594 0.19922-0.875 0.25-0.29297 0.050781-0.58594 0.078125-0.875 0.078125-0.71094 0-1.2578-0.17578-1.6406-0.53125-0.38672-0.35156-0.57812-0.85156-0.57812-1.5 0-0.63281 0.1875-1.1289 0.5625-1.4844 0.38281-0.36328 0.91016-0.54688 1.5781-0.54688 0.61328 0 1.1016 0.18359 1.4688 0.54688 0.36328 0.36719 0.54688 0.85547 0.54688 1.4688zm-1.2812-0.40625c0-0.23828-0.070312-0.42969-0.20312-0.57812-0.13672-0.14453-0.3125-0.21875-0.53125-0.21875-0.24219 0-0.4375 0.070312-0.59375 0.20312-0.14844 0.13672-0.24219 0.33594-0.28125 0.59375z"/>
  </symbol>
  <symbol id="d" overflow="visible">
   <path d="m2.3281-1.75c-0.25 0-0.44531 0.046875-0.57812 0.14062-0.125 0.085937-0.1875 0.21484-0.1875 0.39062 0 0.15625 0.050781 0.28125 0.15625 0.375 0.10156 0.085938 0.25 0.125 0.4375 0.125 0.22656 0 0.42188-0.082031 0.57812-0.25 0.16406-0.16406 0.25-0.37891 0.25-0.64062v-0.14062zm1.9062-0.46875v2.2188h-1.25v-0.57812c-0.16797 0.24219-0.35547 0.41406-0.5625 0.51562-0.21094 0.10156-0.46484 0.15625-0.76562 0.15625-0.39844 0-0.71875-0.11328-0.96875-0.34375-0.25-0.23828-0.375-0.53906-0.375-0.90625 0-0.45703 0.15625-0.78906 0.46875-1 0.3125-0.21875 0.80078-0.32812 1.4688-0.32812h0.73438v-0.09375c0-0.19531-0.078125-0.34375-0.23438-0.4375s-0.40234-0.14062-0.73438-0.14062c-0.26172 0-0.50781 0.03125-0.73438 0.09375-0.23047 0.054688-0.44531 0.13281-0.64062 0.23438v-0.95312c0.26953-0.0625 0.53516-0.10938 0.79688-0.14062 0.26953-0.03125 0.53906-0.046875 0.8125-0.046875 0.69531 0 1.2031 0.14062 1.5156 0.42188 0.3125 0.27344 0.46875 0.71484 0.46875 1.3281z"/>
  </symbol>
  <symbol id="c" overflow="visible">
   <path d="m1.9531-4.9844v1.1094h1.2812v0.875h-1.2812v1.6562c0 0.17969 0.035156 0.29688 0.10938 0.35938 0.070312 0.0625 0.21094 0.09375 0.42188 0.09375h0.64062v0.89062h-1.0625c-0.49219 0-0.83984-0.097656-1.0469-0.29688-0.21094-0.20703-0.3125-0.55469-0.3125-1.0469v-1.6562h-0.60938v-0.875h0.60938v-1.1094z"/>
  </symbol>
  <symbol id="j" overflow="visible">
   <path d="m3.2344-3.3125v-2.0781h1.25v5.3906h-1.25v-0.5625c-0.16797 0.23047-0.35547 0.39844-0.5625 0.5-0.21094 0.10156-0.44922 0.15625-0.71875 0.15625-0.48047 0-0.875-0.1875-1.1875-0.5625-0.30469-0.38281-0.45312-0.875-0.45312-1.4688s0.14844-1.0781 0.45312-1.4531c0.3125-0.38281 0.70703-0.57812 1.1875-0.57812 0.26953 0 0.50781 0.054688 0.71875 0.15625 0.20703 0.10547 0.39453 0.27344 0.5625 0.5zm-0.8125 2.5156c0.25781 0 0.45703-0.09375 0.59375-0.28125 0.14453-0.19531 0.21875-0.48438 0.21875-0.85938 0-0.36328-0.074219-0.64453-0.21875-0.84375-0.13672-0.19531-0.33594-0.29688-0.59375-0.29688-0.27344 0-0.47656 0.10156-0.60938 0.29688-0.13672 0.19922-0.20312 0.48047-0.20312 0.84375 0 0.375 0.066406 0.66406 0.20312 0.85938 0.13281 0.1875 0.33594 0.28125 0.60938 0.28125z"/>
  </symbol>
  <symbol id="i" overflow="visible">
   <path d="m2.6562-0.79688c0.26953 0 0.47266-0.09375 0.60938-0.28125 0.14453-0.19531 0.21875-0.48438 0.21875-0.85938 0-0.36328-0.074219-0.64453-0.21875-0.84375-0.13672-0.19531-0.33984-0.29688-0.60938-0.29688-0.26172 0-0.46484 0.10156-0.60938 0.29688-0.14844 0.19922-0.21875 0.48047-0.21875 0.84375 0 0.36719 0.070313 0.64844 0.21875 0.84375 0.14453 0.19922 0.34766 0.29688 0.60938 0.29688zm-0.82812-2.5156c0.17578-0.22656 0.36719-0.39453 0.57812-0.5 0.20703-0.10156 0.44531-0.15625 0.71875-0.15625 0.47656 0 0.86719 0.19531 1.1719 0.57812 0.3125 0.375 0.46875 0.85938 0.46875 1.4531s-0.15625 1.0859-0.46875 1.4688c-0.30469 0.375-0.69531 0.5625-1.1719 0.5625-0.27344 0-0.51172-0.054688-0.71875-0.15625-0.21094-0.10156-0.40234-0.26953-0.57812-0.5v0.5625h-1.2344v-5.3906h1.2344z"/>
  </symbol>
  <symbol id="b" overflow="visible">
   <path d="m0.09375-3.875h1.2344l1.0469 2.625 0.875-2.625h1.25l-1.6406 4.2344c-0.15625 0.4375-0.34375 0.73828-0.5625 0.90625-0.21875 0.17578-0.51172 0.26562-0.875 0.26562h-0.71875v-0.8125h0.39062c0.20703 0 0.35938-0.039062 0.45312-0.10938 0.10156-0.0625 0.17969-0.18359 0.23438-0.35938l0.03125-0.09375z"/>
  </symbol>
  <symbol id="h" overflow="visible">
   <path d="m0.03125-5.1719h4.7656v1.0156h-1.7031v4.1562h-1.3438v-4.1562h-1.7188z"/>
  </symbol>
  <symbol id="t" overflow="visible">
   <path d="m2.4219-3.0781c-0.27344 0-0.47656 0.10156-0.60938 0.29688-0.13672 0.19922-0.20312 0.48047-0.20312 0.84375 0 0.375 0.066406 0.66406 0.20312 0.85938 0.13281 0.1875 0.33594 0.28125 0.60938 0.28125 0.25781 0 0.45703-0.09375 0.59375-0.28125 0.14453-0.19531 0.21875-0.48438 0.21875-0.85938 0-0.36328-0.074219-0.64453-0.21875-0.84375-0.13672-0.19531-0.33594-0.29688-0.59375-0.29688zm0.8125 2.5156c-0.16797 0.23047-0.35547 0.39844-0.5625 0.5-0.21094 0.10156-0.44922 0.15625-0.71875 0.15625-0.48047 0-0.875-0.1875-1.1875-0.5625-0.30469-0.38281-0.45312-0.875-0.45312-1.4688s0.14844-1.0781 0.45312-1.4531c0.3125-0.38281 0.70703-0.57812 1.1875-0.57812 0.26953 0 0.50781 0.058594 0.71875 0.17188 0.20703 0.10547 0.39453 0.27344 0.5625 0.5v-0.57812h1.25v5.3438h-1.25z"/>
  </symbol>
  <symbol id="s" overflow="visible">
   <path d="m0.59375-3.875h1.2344v3.875h-1.2344zm0-1.5156h1.2344v1.0156h-1.2344z"/>
  </symbol>
  <symbol id="g" overflow="visible">
   <path d="m4.5-2.3594v2.3594h-1.25v-1.7969c0-0.34375-0.011719-0.57812-0.03125-0.70312-0.011719-0.125-0.03125-0.21875-0.0625-0.28125-0.054688-0.082031-0.12109-0.14453-0.20312-0.1875-0.085937-0.039062-0.17969-0.0625-0.28125-0.0625-0.26172 0-0.46875 0.10156-0.625 0.29688-0.14844 0.19922-0.21875 0.47656-0.21875 0.82812v1.9062h-1.2344v-5.3906h1.2344v2.0781c0.1875-0.22656 0.38281-0.39453 0.59375-0.5 0.21875-0.10156 0.45312-0.15625 0.70312-0.15625 0.44531 0 0.78516 0.13672 1.0156 0.40625 0.23828 0.27344 0.35938 0.67188 0.35938 1.2031z"/>
  </symbol>
  <symbol id="r" overflow="visible">
   <path d="m3.1562-5.3906v0.8125h-0.6875c-0.17969 0-0.30469 0.03125-0.375 0.09375-0.074219 0.0625-0.10938 0.17188-0.10938 0.32812v0.28125h1.0625v0.875h-1.0625v3h-1.2344v-3h-0.60938v-0.875h0.60938v-0.28125c0-0.41406 0.11328-0.72266 0.34375-0.92188 0.23828-0.20703 0.60938-0.3125 1.1094-0.3125z"/>
  </symbol>
  <symbol id="f" overflow="visible">
   <path d="m2.4375-3.0938c-0.27344 0-0.48047 0.10156-0.625 0.29688-0.14844 0.19922-0.21875 0.48438-0.21875 0.85938s0.070312 0.66406 0.21875 0.85938c0.14453 0.19922 0.35156 0.29688 0.625 0.29688 0.26953 0 0.47656-0.097656 0.625-0.29688 0.14453-0.19531 0.21875-0.48438 0.21875-0.85938s-0.074219-0.66016-0.21875-0.85938c-0.14844-0.19531-0.35547-0.29688-0.625-0.29688zm0-0.875c0.66406 0 1.1875 0.18359 1.5625 0.54688 0.375 0.35547 0.5625 0.85156 0.5625 1.4844 0 0.63672-0.1875 1.1367-0.5625 1.5-0.375 0.35547-0.89844 0.53125-1.5625 0.53125-0.66797 0-1.1875-0.17578-1.5625-0.53125-0.375-0.36328-0.5625-0.86328-0.5625-1.5 0-0.63281 0.1875-1.1289 0.5625-1.4844 0.375-0.36328 0.89453-0.54688 1.5625-0.54688z"/>
  </symbol>
  <symbol id="q" overflow="visible">
   <path d="m4.1875-3.2344c0.15625-0.23828 0.34375-0.42188 0.5625-0.54688s0.45703-0.1875 0.71875-0.1875c0.4375 0 0.76953 0.13672 1 0.40625 0.23828 0.27344 0.35938 0.67188 0.35938 1.2031v2.3594h-1.25v-2.0156c0.007813-0.03125 0.015625-0.0625 0.015625-0.09375v-0.14062c0-0.28125-0.042969-0.47656-0.125-0.59375-0.085938-0.125-0.21484-0.1875-0.39062-0.1875-0.24219 0-0.42188 0.10156-0.54688 0.29688-0.125 0.1875-0.19531 0.46484-0.20312 0.82812v1.9062h-1.2344v-2.0156c0-0.4375-0.042969-0.71094-0.125-0.82812-0.074219-0.125-0.20312-0.1875-0.39062-0.1875-0.24219 0-0.42969 0.10156-0.5625 0.29688-0.125 0.1875-0.1875 0.46484-0.1875 0.82812v1.9062h-1.2344v-3.875h1.2344v0.5625c0.15625-0.21875 0.33203-0.37891 0.53125-0.48438 0.19531-0.11328 0.41406-0.17188 0.65625-0.17188 0.26953 0 0.50391 0.070312 0.70312 0.20312 0.20703 0.125 0.36328 0.30469 0.46875 0.53125z"/>
  </symbol>
  <symbol id="p" overflow="visible">
   <path d="m0.65625-5.1719h1.4844l1.875 3.5469v-3.5469h1.2656v5.1719h-1.4844l-1.875-3.5469v3.5469h-1.2656z"/>
  </symbol>
  <symbol id="o" overflow="visible">
   <path d="m0.54688-1.5156v-2.3594h1.25v0.39062 0.79688 0.625c0 0.3125 0.003906 0.53906 0.015625 0.67188 0.019531 0.13672 0.050781 0.23438 0.09375 0.29688 0.050781 0.085938 0.11328 0.14844 0.1875 0.1875 0.082031 0.042969 0.17969 0.0625 0.29688 0.0625 0.25 0 0.44531-0.097656 0.59375-0.29688 0.15625-0.19531 0.23438-0.47266 0.23438-0.82812v-1.9062h1.2344v3.875h-1.2344v-0.5625c-0.1875 0.23047-0.38672 0.39844-0.59375 0.5-0.21094 0.10156-0.44531 0.15625-0.70312 0.15625-0.44922 0-0.79297-0.13281-1.0312-0.40625-0.23047-0.26953-0.34375-0.67188-0.34375-1.2031z"/>
  </symbol>
  <symbol id="n" overflow="visible">
   <path d="m4.5-2.3594v2.3594h-1.25v-1.8125c0-0.33203-0.011719-0.5625-0.03125-0.6875-0.011719-0.125-0.03125-0.21875-0.0625-0.28125-0.054688-0.082031-0.12109-0.14453-0.20312-0.1875-0.085937-0.039062-0.17969-0.0625-0.28125-0.0625-0.26172 0-0.46875 0.10156-0.625 0.29688-0.14844 0.19922-0.21875 0.47656-0.21875 0.82812v1.9062h-1.2344v-3.875h1.2344v0.5625c0.1875-0.22656 0.38281-0.39453 0.59375-0.5 0.21875-0.10156 0.45312-0.15625 0.70312-0.15625 0.44531 0 0.78516 0.13672 1.0156 0.40625 0.23828 0.27344 0.35938 0.67188 0.35938 1.2031z"/>
  </symbol>
  <symbol id="m" overflow="visible">
   <path d="m0.65625-5.1719h2.2031c0.66406 0 1.1719 0.14844 1.5156 0.4375 0.35156 0.29297 0.53125 0.71094 0.53125 1.25 0 0.54297-0.17969 0.96094-0.53125 1.25-0.34375 0.29297-0.85156 0.4375-1.5156 0.4375h-0.875v1.7969h-1.3281zm1.3281 0.96875v1.4375h0.73438c0.25781 0 0.45703-0.0625 0.59375-0.1875 0.14453-0.125 0.21875-0.30078 0.21875-0.53125 0-0.22656-0.074219-0.40625-0.21875-0.53125-0.13672-0.125-0.33594-0.1875-0.59375-0.1875z"/>
  </symbol>
  <symbol id="l" overflow="visible">
   <path d="m0.59375-3.875h1.2344v3.8125c0 0.50781-0.125 0.89844-0.375 1.1719-0.24219 0.28125-0.60156 0.42188-1.0781 0.42188h-0.60938v-0.8125h0.21875c0.22656 0 0.38281-0.058594 0.46875-0.17188 0.09375-0.10547 0.14062-0.30859 0.14062-0.60938zm0-1.5156h1.2344v1.0156h-1.2344z"/>
  </symbol>
  <symbol id="k" overflow="visible">
   <path d="m3.7344-3.7656v1.0156c-0.16797-0.11328-0.33984-0.19531-0.51562-0.25-0.16797-0.0625-0.34375-0.09375-0.53125-0.09375-0.34375 0-0.61719 0.10547-0.8125 0.3125-0.1875 0.19922-0.28125 0.48047-0.28125 0.84375 0 0.36719 0.09375 0.65234 0.28125 0.85938 0.19531 0.19922 0.46875 0.29688 0.8125 0.29688 0.19531 0 0.38281-0.023438 0.5625-0.078125 0.17578-0.0625 0.33594-0.14844 0.48438-0.26562v1.0156c-0.19922 0.074219-0.39844 0.125-0.59375 0.15625-0.19922 0.03125-0.40234 0.046875-0.60938 0.046875-0.69922 0-1.2461-0.17578-1.6406-0.53125-0.38672-0.36328-0.57812-0.86328-0.57812-1.5 0-0.63281 0.19141-1.1289 0.57812-1.4844 0.39453-0.36328 0.94141-0.54688 1.6406-0.54688 0.20703 0 0.41016 0.023438 0.60938 0.0625 0.19531 0.03125 0.39453 0.078125 0.59375 0.14062z"/>
  </symbol>
 </defs>
 <g>
  <path d="m349.29 117.67c80.809 0 141.77 66.633 141.77 144.61 0 32.609-11.34 63.797-29.773 89.316-19.848 25.52-29.773 55.293-29.773 87.898-1.418 19.848-17.012 35.441-36.859 35.441h-90.734c-19.848 0-35.441-15.594-35.441-35.441-1.418-32.609-11.34-62.379-31.191-87.898-18.43-25.52-28.355-56.707-28.355-89.316 0-77.977 60.961-144.61 140.36-144.61zm12.758 252.36v80.809h32.609c7.0898 0 12.758-5.6719 12.758-11.34 0-38.277 12.758-72.305 35.441-102.07 15.594-22.684 24.102-48.203 24.102-75.141 0-65.215-51.039-121.93-117.67-121.93-66.633 0-116.25 56.707-116.25 121.93 0 26.938 8.5078 52.457 24.102 75.141 22.684 29.773 34.023 63.797 35.441 102.07 0 5.6719 5.6719 11.34 11.34 11.34h34.023v-80.809l-25.52-25.52c-4.2539-4.2539-4.2539-11.34 0-15.594 4.2539-5.6719 12.758-5.6719 17.012 0l19.848 19.848 21.266-19.848c4.2539-5.6719 11.34-5.6719 15.594 0 5.6719 4.2539 5.6719 11.34 0 15.594l-24.102 25.52z"/>
  <path d="m337.95 11.34c0-5.6719 5.6719-11.34 11.34-11.34 7.0898 0 12.758 5.6719 12.758 11.34v60.961c0 5.6719-5.6719 11.34-12.758 11.34-5.6719 0-11.34-5.6719-11.34-11.34z"/>
  <path d="m464.12 39.695c4.2539-5.6719 11.34-7.0898 17.012-4.2539 5.6719 2.8359 7.0898 9.9258 4.2539 15.594l-29.773 52.457c-2.8359 5.6719-11.34 7.0898-17.012 4.2539-5.6719-2.8359-7.0898-9.9258-4.2539-15.594z"/>
  <path d="m560.53 127.59c5.6719-4.2539 12.758-1.418 17.012 4.2539 2.8359 5.6719 1.418 12.758-4.2539 15.594l-52.457 29.773c-5.6719 4.2539-12.758 1.418-15.594-4.2539-4.2539-5.6719-1.418-12.758 4.2539-15.594z"/>
  <path d="m600.23 250.94c7.0898 0 12.758 5.6719 12.758 11.34 0 7.0898-5.6719 12.758-12.758 12.758h-59.543c-7.0898 0-12.758-5.6719-12.758-12.758 0-5.6719 5.6719-11.34 12.758-11.34z"/>
  <path d="m573.29 377.11c5.6719 4.2539 7.0898 11.34 4.2539 17.012-4.2539 5.6719-11.34 7.0898-17.012 4.2539l-51.039-29.773c-5.6719-2.8359-8.5078-11.34-4.2539-17.012 2.8359-5.6719 9.9258-7.0898 15.594-4.2539z"/>
  <path d="m214.61 51.039c-4.2539-5.6719-1.418-12.758 4.2539-15.594 5.6719-2.8359 12.758-1.418 15.594 4.2539l29.773 52.457c4.2539 5.6719 1.418 12.758-4.2539 15.594-5.6719 2.8359-12.758 1.418-15.594-4.2539z"/>
  <path d="m126.71 147.44c-5.6719-2.8359-7.0898-9.9258-4.2539-15.594 2.8359-5.6719 9.9258-8.5078 15.594-4.2539l52.457 29.773c5.6719 2.8359 7.0898 9.9258 4.2539 15.594-2.8359 5.6719-9.9258 8.5078-15.594 4.2539z"/>
  <path d="m98.355 275.04c-5.6719 0-11.34-5.6719-11.34-12.758 0-5.6719 5.6719-11.34 11.34-11.34h60.961c5.6719 0 11.34 5.6719 11.34 11.34 0 7.0898-5.6719 12.758-11.34 12.758z"/>
  <path d="m138.05 398.38c-5.6719 2.8359-12.758 1.418-15.594-4.2539-2.8359-5.6719-1.418-12.758 4.2539-17.012l52.457-29.773c5.6719-2.8359 12.758-1.418 15.594 4.2539 2.8359 5.6719 1.418 14.176-4.2539 17.012z"/>
  <path d="m284.07 496.2h130.43c2.8359 0 4.2539 1.418 4.2539 4.2539v24.102c0 2.8359-1.418 4.2539-4.2539 4.2539h-11.34c-9.9258 18.43-29.773 31.191-53.875 31.191-22.684 0-42.531-12.758-52.457-31.191h-12.758c-1.418 0-4.2539-1.418-4.2539-4.2539v-24.102c0-2.8359 2.8359-4.2539 4.2539-4.2539z" fill-rule="evenodd"/>
  <use x="87.011719" y="581.265625" xlink:href="#u"/>
  <use x="92.214844" y="581.265625" xlink:href="#e"/>
  <use x="95.710938" y="581.265625" xlink:href="#a"/>
  <use x="100.519531" y="581.265625" xlink:href="#d"/>
  <use x="105.300781" y="581.265625" xlink:href="#c"/>
  <use x="108.691406" y="581.265625" xlink:href="#a"/>
  <use x="113.496094" y="581.265625" xlink:href="#j"/>
  <use x="121.039063" y="581.265625" xlink:href="#i"/>
  <use x="126.113281" y="581.265625" xlink:href="#b"/>
  <use x="133.203125" y="581.265625" xlink:href="#h"/>
  <use x="138.039063" y="581.265625" xlink:href="#d"/>
  <use x="142.820312" y="581.265625" xlink:href="#t"/>
  <use x="147.894531" y="581.265625" xlink:href="#s"/>
  <use x="150.324219" y="581.265625" xlink:href="#b"/>
  <use x="154.945312" y="581.265625" xlink:href="#b"/>
  <use x="159.566406" y="581.265625" xlink:href="#d"/>
  <use x="164.351562" y="581.265625" xlink:href="#g"/>
  <use x="87.011719" y="588.355469" xlink:href="#r"/>
  <use x="90.097656" y="588.355469" xlink:href="#e"/>
  <use x="93.59375" y="588.355469" xlink:href="#f"/>
  <use x="98.460938" y="588.355469" xlink:href="#q"/>
  <use x="108.316406" y="588.355469" xlink:href="#c"/>
  <use x="111.707031" y="588.355469" xlink:href="#g"/>
  <use x="116.75" y="588.355469" xlink:href="#a"/>
  <use x="124.027344" y="588.355469" xlink:href="#p"/>
  <use x="129.960938" y="588.355469" xlink:href="#f"/>
  <use x="134.828125" y="588.355469" xlink:href="#o"/>
  <use x="139.875" y="588.355469" xlink:href="#n"/>
  <use x="147.390625" y="588.355469" xlink:href="#m"/>
  <use x="152.585938" y="588.355469" xlink:href="#e"/>
  <use x="156.082031" y="588.355469" xlink:href="#f"/>
  <use x="160.953125" y="588.355469" xlink:href="#l"/>
  <use x="163.382812" y="588.355469" xlink:href="#a"/>
  <use x="168.1875" y="588.355469" xlink:href="#k"/>
  <use x="172.390625" y="588.355469" xlink:href="#c"/>
 </g>
</svg>
