<?xml version="1.0" encoding="UTF-8"?>
<svg width="700pt" height="700pt" version="1.1" viewBox="0 0 700 700" xmlns="http://www.w3.org/2000/svg" xmlns:xlink="http://www.w3.org/1999/xlink">
 <defs>
  <symbol id="m" overflow="visible">
   <path d="m29.312-1.75c-1.5117 0.78125-3.0898 1.3711-4.7344 1.7656-1.6367 0.40625-3.3398 0.60938-5.1094 0.60938-5.3125 0-9.5273-1.4844-12.641-4.4531-3.1055-2.9688-4.6562-7-4.6562-12.094s1.5508-9.125 4.6562-12.094c3.1133-2.9688 7.3281-4.4531 12.641-4.4531 1.7695 0 3.4727 0.19922 5.1094 0.59375 1.6445 0.39844 3.2227 0.99219 4.7344 1.7812v6.5938c-1.5312-1.0391-3.0391-1.8008-4.5156-2.2812-1.4805-0.48828-3.0391-0.73438-4.6719-0.73438-2.9375 0-5.2461 0.94531-6.9219 2.8281-1.6797 1.875-2.5156 4.4648-2.5156 7.7656 0 3.293 0.83594 5.8828 2.5156 7.7656 1.6758 1.875 3.9844 2.8125 6.9219 2.8125 1.6328 0 3.1914-0.23828 4.6719-0.71875 1.4766-0.48828 2.9844-1.2539 4.5156-2.2969z"/>
  </symbol>
  <symbol id="h" overflow="visible">
   <path d="m21.453-17.406c-0.67969-0.3125-1.3516-0.53906-2.0156-0.6875-0.65625-0.15625-1.3203-0.23438-1.9844-0.23438-1.9688 0-3.4844 0.63281-4.5469 1.8906-1.0547 1.2617-1.5781 3.0703-1.5781 5.4219v11.016h-7.6562v-23.922h7.6562v3.9219c0.97656-1.5625 2.1016-2.7031 3.375-3.4219 1.2812-0.71875 2.8125-1.0781 4.5938-1.0781 0.25 0 0.52344 0.011719 0.82812 0.03125 0.30078 0.023438 0.73438 0.070312 1.2969 0.14062z"/>
  </symbol>
  <symbol id="c" overflow="visible">
   <path d="m27.562-12.031v2.1875h-17.891c0.1875 1.793 0.83203 3.1367 1.9375 4.0312 1.1133 0.89844 2.6719 1.3438 4.6719 1.3438 1.6016 0 3.25-0.23438 4.9375-0.70312 1.6875-0.47656 3.4219-1.2031 5.2031-2.1719v5.8906c-1.8047 0.6875-3.6094 1.2031-5.4219 1.5469-1.8125 0.35156-3.6211 0.53125-5.4219 0.53125-4.3359 0-7.7031-1.0977-10.109-3.2969-2.3984-2.207-3.5938-5.2969-3.5938-9.2656 0-3.9062 1.1758-6.9727 3.5312-9.2031 2.3633-2.2383 5.6094-3.3594 9.7344-3.3594 3.7578 0 6.7695 1.1367 9.0312 3.4062 2.2578 2.2617 3.3906 5.2812 3.3906 9.0625zm-7.8594-2.5312c0-1.457-0.42969-2.6289-1.2812-3.5156-0.84375-0.89453-1.9492-1.3438-3.3125-1.3438-1.4922 0-2.6992 0.41797-3.625 1.25-0.91797 0.83594-1.4922 2.0391-1.7188 3.6094z"/>
  </symbol>
  <symbol id="a" overflow="visible">
   <path d="m14.391-10.766c-1.5938 0-2.793 0.27344-3.5938 0.8125-0.80469 0.54297-1.2031 1.3398-1.2031 2.3906 0 0.96875 0.32031 1.7305 0.96875 2.2812 0.64453 0.54297 1.5469 0.8125 2.7031 0.8125 1.4375 0 2.6445-0.51562 3.625-1.5469 0.98828-1.0312 1.4844-2.3203 1.4844-3.875v-0.875zm11.688-2.8906v13.656h-7.7031v-3.5469c-1.0312 1.4492-2.1875 2.5078-3.4688 3.1719s-2.8398 1-4.6719 1c-2.4805 0-4.4961-0.72266-6.0469-2.1719-1.543-1.4453-2.3125-3.3203-2.3125-5.625 0-2.8125 0.96094-4.8672 2.8906-6.1719 1.9375-1.3125 4.9688-1.9688 9.0938-1.9688h4.5156v-0.60938c0-1.207-0.48047-2.0938-1.4375-2.6562-0.94922-0.5625-2.4375-0.84375-4.4688-0.84375-1.6367 0-3.1562 0.16797-4.5625 0.5-1.4062 0.32422-2.7188 0.8125-3.9375 1.4688v-5.8281c1.6445-0.40625 3.2891-0.70703 4.9375-0.90625 1.6562-0.20703 3.3047-0.3125 4.9531-0.3125 4.3203 0 7.4375 0.85547 9.3438 2.5625 1.9141 1.6992 2.875 4.4609 2.875 8.2812z"/>
  </symbol>
  <symbol id="b" overflow="visible">
   <path d="m12.031-30.719v6.7969h7.875v5.4688h-7.875v10.141c0 1.1172 0.21875 1.8711 0.65625 2.2656 0.4375 0.38672 1.3125 0.57812 2.625 0.57812h3.9375v5.4688h-6.5625c-3.0234 0-5.1641-0.62891-6.4219-1.8906-1.2617-1.2578-1.8906-3.3984-1.8906-6.4219v-10.141h-3.7969v-5.4688h3.7969v-6.7969z"/>
  </symbol>
  <symbol id="g" overflow="visible">
   <path d="m19.953-20.422v-12.812h7.6875v33.234h-7.6875v-3.4531c-1.0547 1.4062-2.2148 2.4375-3.4844 3.0938-1.2734 0.65625-2.7422 0.98438-4.4062 0.98438-2.9492 0-5.3711-1.1719-7.2656-3.5156-1.8867-2.3438-2.8281-5.3594-2.8281-9.0469s0.94141-6.7031 2.8281-9.0469c1.8945-2.3438 4.3164-3.5156 7.2656-3.5156 1.6562 0 3.1172 0.33594 4.3906 1 1.2812 0.65625 2.4453 1.6836 3.5 3.0781zm-5.0469 15.484c1.6445 0 2.8945-0.59766 3.75-1.7969 0.86328-1.1953 1.2969-2.9297 1.2969-5.2031 0-2.2812-0.43359-4.0195-1.2969-5.2188-0.85547-1.1953-2.1055-1.7969-3.75-1.7969-1.625 0-2.8711 0.60156-3.7344 1.7969-0.85547 1.1992-1.2812 2.9375-1.2812 5.2188 0 2.2734 0.42578 4.0078 1.2812 5.2031 0.86328 1.1992 2.1094 1.7969 3.7344 1.7969z"/>
  </symbol>
  <symbol id="f" overflow="visible">
   <path d="m16.406-4.9375c1.6328 0 2.8828-0.59766 3.75-1.7969 0.86328-1.1953 1.2969-2.9297 1.2969-5.2031 0-2.2812-0.43359-4.0195-1.2969-5.2188-0.86719-1.1953-2.1172-1.7969-3.75-1.7969-1.6367 0-2.8906 0.60547-3.7656 1.8125-0.875 1.1992-1.3125 2.9336-1.3125 5.2031 0 2.2617 0.4375 3.9961 1.3125 5.2031 0.875 1.1992 2.1289 1.7969 3.7656 1.7969zm-5.0781-15.484c1.0508-1.3945 2.2188-2.4219 3.5-3.0781 1.2812-0.66406 2.7539-1 4.4219-1 2.9453 0 5.3672 1.1719 7.2656 3.5156 1.8945 2.3438 2.8438 5.3594 2.8438 9.0469s-0.94922 6.7031-2.8438 9.0469c-1.8984 2.3438-4.3203 3.5156-7.2656 3.5156-1.668 0-3.1406-0.33594-4.4219-1s-2.4492-1.6914-3.5-3.0781v3.4531h-7.6562v-33.234h7.6562z"/>
  </symbol>
  <symbol id="e" overflow="visible">
   <path d="m0.53125-23.922h7.6562l6.4219 16.234 5.4688-16.234h7.6562l-10.062 26.188c-1.0117 2.6641-2.1953 4.5234-3.5469 5.5781-1.3438 1.0625-3.1211 1.5938-5.3281 1.5938h-4.4219v-5.0156h2.3906c1.3008 0 2.2422-0.21094 2.8281-0.625 0.59375-0.40625 1.0547-1.1484 1.3906-2.2188l0.20312-0.65625z"/>
  </symbol>
  <symbol id="d" overflow="visible">
   <path d="m4.0156-31.891h22.203v6.2188h-13.984v5.9375h13.141v6.2188h-13.141v7.2969h14.453v6.2188h-22.672z"/>
  </symbol>
  <symbol id="l" overflow="visible">
   <path d="m27.734-14.562v14.562h-7.7031v-11.109c0-2.0938-0.046875-3.5312-0.14062-4.3125-0.085937-0.78125-0.24219-1.3594-0.46875-1.7344-0.30469-0.5-0.71094-0.88281-1.2188-1.1562-0.51172-0.28125-1.0938-0.42188-1.75-0.42188-1.5938 0-2.8516 0.61719-3.7656 1.8438-0.90625 1.2305-1.3594 2.9375-1.3594 5.125v11.766h-7.6562v-33.234h7.6562v12.812c1.1445-1.3945 2.3633-2.4219 3.6562-3.0781 1.3008-0.66406 2.7383-1 4.3125-1 2.7578 0 4.8516 0.85156 6.2812 2.5469 1.4375 1.6875 2.1562 4.1523 2.1562 7.3906z"/>
  </symbol>
  <symbol id="k" overflow="visible">
   <path d="m27.734-14.562v14.562h-7.7031v-11.156c0-2.0625-0.046875-3.4844-0.14062-4.2656-0.085937-0.78125-0.24219-1.3594-0.46875-1.7344-0.30469-0.5-0.71094-0.88281-1.2188-1.1562-0.51172-0.28125-1.0938-0.42188-1.75-0.42188-1.5938 0-2.8516 0.61719-3.7656 1.8438-0.90625 1.2305-1.3594 2.9375-1.3594 5.125v11.766h-7.6562v-23.922h7.6562v3.5c1.1445-1.3945 2.3633-2.4219 3.6562-3.0781 1.3008-0.66406 2.7383-1 4.3125-1 2.7578 0 4.8516 0.85156 6.2812 2.5469 1.4375 1.6875 2.1562 4.1523 2.1562 7.3906z"/>
  </symbol>
  <symbol id="j" overflow="visible">
   <path d="m4.0156-31.891h9.1875l11.594 21.875v-21.875h7.7969v31.891h-9.1875l-11.594-21.875v21.875h-7.7969z"/>
  </symbol>
  <symbol id="i" overflow="visible">
   <path d="m25.844-19.953c0.96875-1.4766 2.1172-2.6016 3.4531-3.375 1.332-0.78125 2.7969-1.1719 4.3906-1.1719 2.75 0 4.8438 0.85156 6.2812 2.5469 1.4375 1.6875 2.1562 4.1523 2.1562 7.3906v14.562h-7.6875v-12.469c0.007812-0.1875 0.019531-0.37891 0.03125-0.57812 0.007812-0.19531 0.015625-0.48438 0.015625-0.85938 0-1.6953-0.25-2.9258-0.75-3.6875-0.5-0.75781-1.3086-1.1406-2.4219-1.1406-1.4492 0-2.5703 0.60156-3.3594 1.7969-0.79297 1.1992-1.2031 2.9297-1.2344 5.1875v11.75h-7.6875v-12.469c0-2.6562-0.23047-4.3633-0.6875-5.125-0.44922-0.75781-1.2578-1.1406-2.4219-1.1406-1.4688 0-2.6055 0.60547-3.4062 1.8125-0.79297 1.1992-1.1875 2.918-1.1875 5.1562v11.766h-7.7031v-23.922h7.7031v3.5c0.9375-1.3516 2.0156-2.3672 3.2344-3.0469 1.2188-0.6875 2.5547-1.0312 4.0156-1.0312 1.6562 0 3.1133 0.40234 4.375 1.2031 1.2695 0.79297 2.2344 1.9062 2.8906 3.3438z"/>
  </symbol>
 </defs>
 <g>
  <path d="m576.59 233.33c-22.234-116.14-134.83-192.54-250.94-170.32-56.254 10.762-104.96 42.812-137.12 90.203-32.164 47.41-43.949 104.48-33.188 160.75 0.64062 3.3242 1.3477 6.6133 2.125 9.8789l19.145-4.6016c-0.70703-2.9492-1.3555-5.9492-1.9336-8.9688-6.5898-34.457-3.832-69.238 7.5938-101.46 5.1172 8.5938 12.398 15.848 19.277 22.645 8.8359 8.75 17.184 17 21.621 27.633 4.2891 10.273 3.5352 23.547 2.6094 32.637l19.582 2.0117c1.1445-11.227 1.9844-27.832-4.0156-42.227-5.957-14.289-16.574-24.781-25.945-34.062-14.613-14.445-22.75-23.547-19.363-38.875 2.7305-4.8555 5.625-9.6406 8.7852-14.305 17.254-25.41 39.77-45.922 65.809-60.496 7.6211 11.621 21.062 26.836 39.621 27.754 13.387 0.69922 24.387-6.168 33.223-11.656 3.0977-1.9336 7.6211-4.75 9.8164-5.3281 0.22656 0.30469 0.53516 0.79688 0.91016 1.5391l2.6523 5.2852c7.9609 15.758 8.9844 17.789 5.3711 34.371-3.0273 13.879-11.086 50.742 22.602 61.914 3.4648 1.1445 4.8125 2.4062 4.9336 2.4414-0.097656 2.1016-7.5078 13.004-40.031 24.098-8.2422 2.8164-16.047 5.5039-23.215 8.1562l6.8594 18.453c7.0078-2.5977 14.656-5.2148 22.715-7.9609 34.477-11.777 53.426-26.984 53.367-42.832-0.015625-4.4961-1.8555-15.559-18.426-21.051-10.414-3.457-15.645-11.172-9.5625-39.035 4.875-22.34 2.1875-29.191-7.0352-47.441l-2.5977-5.1797c-3.1602-6.3438-7.5156-10.344-12.949-11.875-9.1719-2.5977-17.613 2.6523-25.785 7.7266-7.1758 4.4609-14.586 9.0898-21.859 8.7148-9.1016-0.44531-17.219-8.8008-22.836-16.871 13.012-5.625 26.715-9.8945 40.977-12.625 70.656-13.535 139.82 13.176 183.88 63.973-10.633 4.1211-23.414 11.262-27.754 22.836-2.1953 5.8555-3.0898 15.129 5.1289 26.066 17.77 23.633 15.785 30.527 7.4219 46.996-13.211 26.031-8.3828 65.609 11.008 90.098 9.5977 12.117 21.57 19.074 34.738 20.492-7.6211 17.055-17.641 32.934-29.734 47.137-20.512-21.148-45.055-42.367-59.027-39.68-4.1562 0.78906-8.5156 2.4766-13.562 4.4102-16.223 6.2578-29.566 10.309-41.465 1.1641-11.086-8.5234-24.508-10.797-37.781-6.3789-16.238 5.3828-30.355 20.371-35.113 37.273-1.4805 5.2656-2.9766 13.004 1.1211 19.418 4.2773 6.7383 11.664 7.9258 18.172 8.9844 5.6523 0.91797 11.488 1.8828 16.652 5.9141 7.2891 5.6797 12.094 15.941 12.258 26.145 0.070312 4.5312-0.85938 8.4609-2.5273 11.094-28.875 1.043-57.574-4.332-84.34-15.977l-7.8594 18.051c27.09 11.797 55.973 17.77 85.145 17.77 13.512 0 27.09-1.2773 40.582-3.8594 116.09-22.25 192.5-134.84 170.27-250.96zm-52.105 86.781c-14.5-18.324-18.578-49.902-8.8906-68.969 11.621-22.891 13.047-38.098-9.2383-67.75-3.457-4.5859-2.6953-6.6406-2.4336-7.3164 1.9258-5.1445 12.617-10.344 22.121-13.301 15.051 21.672 25.953 46.707 31.219 74.234 6.3594 33.242 3.8164 66.141-5.9414 96.266-10.211 0.85547-19.215-3.5391-26.836-13.164zm-121.9 144.82c-2.7812 0.53516-5.582 0.875-8.3828 1.2773 0.54297-2.9414 0.8125-6.0469 0.76172-9.3281-0.26172-16.152-7.8594-31.988-19.828-41.344-9.1367-7.1406-18.656-8.6875-25.609-9.8281-1.3125-0.20312-2.9297-0.48047-4.1641-0.75391 0.11328-0.68359 0.31641-1.6289 0.66406-2.8789 2.9648-10.551 12.383-20.613 22.363-23.93 7.0781-2.3438 13.668-1.25 19.59 3.3164 21.605 16.59 45.035 7.5703 60.543 1.6016 3.7109-1.4258 7.2266-2.793 9.6523-3.3438 6.0469 1.1914 24.578 16.457 42.316 34.59-26.191 25.152-59.66 43.301-97.906 50.621z"/>
  <path d="m325.91 328.12c-0.16797-27.02-8.0859-54.293-25.41-54.293-4.0352 0-9.8789 1.6172-14.805 9.2852-13.457 20.902-27.824 25.996-49.57 33.688-13.832 4.875-29.504 10.422-47.969 21.254-46.172 27.082-31.902 97.062-26.801 116.73-5.0156 5.6875-17.754 17.875-41.797 27.879l7.5508 18.184c28.648-11.91 43.848-26.898 50.008-34.195 110.27-3.4453 149.18-76.332 148.79-138.54zm-127.79 26.898c16.844-9.8789 31.57-15.086 44.574-19.672 22.043-7.7969 41.168-14.559 57.871-39.043 4.9609 10.402 10.078 40.75-1.043 73.309-10.902 31.902-38.605 69.57-107.78 76.379 29.547-39.988 55.938-54.703 56.234-54.863l-9.3086-17.344c-1.3477 0.71875-29.828 16.32-61.715 59.062-3.8555-24.199-5.0547-62.445 21.168-77.828z"/>
  <use x="70" y="691.25" xlink:href="#m"/>
  <use x="102.109375" y="691.25" xlink:href="#h"/>
  <use x="123.683594" y="691.25" xlink:href="#c"/>
  <use x="153.355469" y="691.25" xlink:href="#a"/>
  <use x="182.878906" y="691.25" xlink:href="#b"/>
  <use x="203.792969" y="691.25" xlink:href="#c"/>
  <use x="233.464844" y="691.25" xlink:href="#g"/>
  <use x="280.011719" y="691.25" xlink:href="#f"/>
  <use x="311.328125" y="691.25" xlink:href="#e"/>
  <use x="355.078125" y="691.25" xlink:href="#d"/>
  <use x="384.964844" y="691.25" xlink:href="#b"/>
  <use x="405.878906" y="691.25" xlink:href="#l"/>
  <use x="437.027344" y="691.25" xlink:href="#a"/>
  <use x="466.546875" y="691.25" xlink:href="#k"/>
  <use x="512.925781" y="691.25" xlink:href="#j"/>
  <use x="549.539062" y="691.25" xlink:href="#a"/>
  <use x="579.0625" y="691.25" xlink:href="#i"/>
 </g>
</svg>
